<?xml version="1.0" encoding="UTF-8" standalone="no"?>
<svg
   version="1.1"
   viewBox="0 0 36 36"
   fill="#000000"
   data-color-origin="#000000"
   data-color-type="fill"
   id="svg18"
   width="36"
   height="36"
   xmlns="http://www.w3.org/2000/svg"
   xmlns:svg="http://www.w3.org/2000/svg">
  <defs
     id="defs18" />
  <g
     focusable="false"
     id="g18">
    <rect
       width="36"
       height="36"
       x="0"
       y="0"
       fill="#ffffff"
       stroke-width="0"
       rx="3"
       ry="3"
       style="isolation:isolate"
       class=" bl-fill-0"
       data-color-origin="#fff"
       data-color-type="fill"
       id="rect1" />
    <polygon
       fill="#00adee"
       stroke-width="0"
       points="24.8,33.85 23.51,30.85 24.36,30.04 18,18 27.6,28.2 "
       class=" bl-fill-1"
       data-color-origin="#00adee"
       data-color-type="fill"
       id="polygon1" />
    <polygon
       fill="#00adee"
       stroke-width="0"
       points="29.84,30.59 27.6,28.2 28.12,27.15 18,18 30.53,24.32 "
       class=" bl-fill-1"
       data-color-origin="#00adee"
       data-color-type="fill"
       id="polygon2" />
    <polygon
       fill="#00adee"
       stroke-width="0"
       points="33.46,25.8 30.53,24.32 30.66,23.16 18,18 31.95,19.68 "
       class=" bl-fill-1"
       data-color-origin="#00adee"
       data-color-type="fill"
       id="polygon3" />
    <polygon
       fill="#00adee"
       stroke-width="0"
       points="35.21,20.07 31.95,19.68 31.67,18.54 18,18 31.69,14.84 "
       class=" bl-fill-1"
       data-color-origin="#00adee"
       data-color-type="fill"
       id="polygon4" />
    <polygon
       fill="#00adee"
       stroke-width="0"
       points="34.89,14.1 31.69,14.84 31.03,13.86 18,18 29.77,10.37 "
       class=" bl-fill-1"
       data-color-origin="#00adee"
       data-color-type="fill"
       id="polygon5" />
    <polygon
       fill="#00adee"
       stroke-width="0"
       points="32.52,8.59 29.77,10.37 28.82,9.68 18,18 26.44,6.83 "
       class=" bl-fill-1"
       data-color-origin="#00adee"
       data-color-type="fill"
       id="polygon6" />
    <polygon
       fill="#00adee"
       stroke-width="0"
       points="28.41,4.22 26.44,6.83 25.31,6.5 18,18 22.09,4.64 "
       class=" bl-fill-1"
       data-color-origin="#00adee"
       data-color-type="fill"
       id="polygon7" />
    <polygon
       fill="#00adee"
       stroke-width="0"
       points="23.04,1.51 22.09,4.64 20.91,4.71 18,18 17.24,4.05 "
       class=" bl-fill-1"
       data-color-origin="#00adee"
       data-color-type="fill"
       id="polygon8" />
    <polygon
       fill="#00adee"
       stroke-width="0"
       points="17.07,0.79 17.24,4.05 16.17,4.52 18,18 12.49,5.15 "
       class=" bl-fill-1"
       data-color-origin="#00adee"
       data-color-type="fill"
       id="polygon9" />
    <polygon
       fill="#00adee"
       stroke-width="0"
       points="11.2,2.15 12.49,5.15 11.64,5.96 18,18 8.4,7.8 "
       class=" bl-fill-1"
       data-color-origin="#00adee"
       data-color-type="fill"
       id="polygon10" />
    <polygon
       fill="#00adee"
       stroke-width="0"
       points="6.16,5.41 8.4,7.8 7.88,8.85 18,18 5.47,11.68 "
       class=" bl-fill-1"
       data-color-origin="#00adee"
       data-color-type="fill"
       id="polygon11" />
    <polygon
       fill="#00adee"
       stroke-width="0"
       points="2.54,10.2 5.47,11.68 5.34,12.84 18,18 4.05,16.32 "
       class=" bl-fill-1"
       data-color-origin="#00adee"
       data-color-type="fill"
       id="polygon12" />
    <polygon
       fill="#00adee"
       stroke-width="0"
       points="0.79,15.92 4.05,16.32 4.33,17.46 18,18 4.31,21.16 "
       class=" bl-fill-1"
       data-color-origin="#00adee"
       data-color-type="fill"
       id="polygon13" />
    <polygon
       fill="#00adee"
       stroke-width="0"
       points="1.11,21.9 4.31,21.16 4.97,22.14 18,18 6.23,25.63 "
       class=" bl-fill-1"
       data-color-origin="#00adee"
       data-color-type="fill"
       id="polygon14" />
    <polygon
       fill="#00adee"
       stroke-width="0"
       points="3.48,27.41 6.23,25.63 7.18,26.32 18,18 9.56,29.17 "
       class=" bl-fill-1"
       data-color-origin="#00adee"
       data-color-type="fill"
       id="polygon15" />
    <polygon
       fill="#00adee"
       stroke-width="0"
       points="7.59,31.78 9.56,29.17 10.69,29.5 18,18 13.91,31.36 "
       class=" bl-fill-1"
       data-color-origin="#00adee"
       data-color-type="fill"
       id="polygon16" />
    <polygon
       fill="#00adee"
       stroke-width="0"
       points="12.96,34.49 13.91,31.36 15.09,31.29 18,18 18.76,31.95 "
       class=" bl-fill-1"
       data-color-origin="#00adee"
       data-color-type="fill"
       id="polygon17" />
    <polygon
       fill="#00adee"
       stroke-width="0"
       points="18.93,35.21 18.76,31.95 19.83,31.48 18,18 23.51,30.85 "
       class=" bl-fill-1"
       data-color-origin="#00adee"
       data-color-type="fill"
       id="polygon18" />
  </g>
</svg>
