<?xml version="1.0" encoding="UTF-8" standalone="no"?>
<svg
   preserveAspectRatio="xMidYMid"
   version="1.0"
   viewBox="0 0 762.70518 184"
   fill="#000000"
   data-color-origin="#000000"
   data-color-type="fill"
   id="svg5"
   width="762.7052"
   height="184"
   xmlns="http://www.w3.org/2000/svg"
   xmlns:svg="http://www.w3.org/2000/svg">
  <defs
     id="defs5" />
  <g
     fill="#000000"
     stroke="none"
     transform="matrix(0.1,0,0,-0.1,-24.092258,193)"
     class=" bl-fill-0"
     data-color-origin="#000000"
     data-color-type="fill"
     id="g5">
    <path
       d="m 982,1825 c -60,-58 -115,-105 -120,-105 -6,0 -23,32 -38,70 -15,39 -30,70 -33,70 -4,0 -37,-63 -75,-140 -38,-77 -72,-143 -76,-145 -4,-3 -31,20 -59,50 -29,31 -57,53 -62,50 -5,-4 -9,-25 -9,-48 -1,-58 -25,-255 -32,-262 -3,-3 -35,9 -71,26 -37,18 -69,30 -72,27 -3,-3 11,-74 31,-157 20,-83 35,-154 32,-157 -3,-3 -39,-1 -79,5 -40,5 -75,8 -78,6 -2,-3 35,-63 82,-135 48,-71 87,-134 87,-138 0,-5 -34,-16 -75,-26 -41,-10 -75,-21 -75,-24 0,-4 26,-25 57,-47 59,-41 182,-133 196,-145 4,-4 -21,-26 -58,-50 -36,-23 -65,-45 -65,-49 0,-4 44,-20 98,-35 141,-41 196,-58 205,-66 4,-3 -13,-32 -38,-64 -25,-32 -45,-63 -45,-68 0,-7 24,-8 63,-4 34,3 108,8 164,12 l 101,6 17,62 c 16,57 75,250 140,461 46,147 40,72 -14,-167 -27,-123 -56,-248 -62,-278 -15,-66 -24,-80 -54,-80 -20,0 -27,-11 -49,-77 -13,-43 -23,-79 -21,-81 3,-4 268,111 292,126 9,6 9,61 -2,242 -15,248 -19,397 -9,388 3,-4 12,-55 19,-115 8,-59 25,-192 39,-295 14,-102 26,-188 26,-191 0,-3 -14,-10 -31,-17 -30,-13 -31,-15 -25,-58 3,-25 6,-60 6,-78 0,-19 3,-34 8,-34 4,0 57,47 119,105 61,58 115,105 120,105 5,0 20,-30 35,-67 14,-37 30,-69 34,-70 5,-2 40,62 78,142 38,80 73,145 77,145 4,0 30,-26 58,-57 27,-32 53,-55 56,-51 4,3 13,73 22,155 8,81 19,152 23,156 4,5 40,-8 79,-27 39,-20 71,-33 71,-29 0,5 -16,72 -35,150 -19,79 -35,150 -35,159 0,15 17,15 129,-2 43,-7 44,-10 -63,149 -75,109 -90,126 -109,122 -27,-6 -229,-54 -399,-94 -140,-34 -216,-47 -207,-37 7,7 568,186 586,186 7,0 20,-10 30,-23 l 17,-23 74,17 c 82,20 94,26 72,39 -18,10 -231,167 -244,180 -4,4 21,27 58,50 36,23 66,45 66,49 0,4 -66,26 -147,49 -82,24 -152,47 -156,51 -5,5 13,36 39,70 26,34 45,63 43,65 -4,4 -321,-14 -326,-18 -1,-1 -39,-123 -83,-271 -44,-147 -87,-286 -95,-309 -24,-69 -19,-1 9,117 14,56 41,181 62,277 20,96 42,178 48,182 6,4 21,8 33,8 19,0 26,12 47,78 13,42 23,78 21,80 -2,3 -113,-44 -233,-98 l -73,-33 6,-101 c 4,-56 10,-168 16,-249 19,-304 5,-361 -26,-108 -8,69 -24,194 -35,276 -11,83 -20,153 -20,156 0,4 14,12 31,19 19,8 28,18 25,27 -4,8 -6,44 -6,79 0,35 -4,64 -9,64 -4,0 -58,-47 -119,-105 z m 7,-411 c 67,-157 120,-291 118,-297 -1,-5 -38,59 -81,144 -43,85 -82,159 -86,164 -19,27 -120,227 -120,238 0,16 20,37 35,37 7,0 67,-129 134,-286 z m 617,204 c 3,-5 -61,-97 -142,-206 -81,-108 -168,-225 -193,-258 -49,-66 -62,-75 -37,-26 21,40 295,472 313,493 14,17 48,15 59,-3 z M 851,1343 c 318,-338 319,-348 4,-59 -119,110 -223,205 -232,211 -12,9 -12,15 -2,38 7,15 15,27 19,27 3,0 98,-98 211,-217 z m 922,103 c 9,-7 17,-16 17,-20 0,-4 -73,-54 -162,-113 -90,-58 -202,-132 -250,-164 -48,-32 -102,-66 -120,-74 l -33,-17 30,26 c 17,14 102,81 190,148 88,67 189,146 225,175 70,57 76,59 103,39 z M 781,1204 c 374,-188 379,-200 24,-52 -104,44 -218,91 -253,105 -34,14 -66,31 -72,38 -9,10 -3,55 7,55 2,0 135,-66 294,-146 z m -51,-140 c 168,-20 307,-38 309,-40 2,-2 2,-6 0,-8 -5,-6 -426,12 -544,22 -78,7 -80,8 -83,35 -2,15 0,27 5,27 4,0 145,-16 313,-36 z m 944,-74 c 120,-6 222,-13 227,-16 5,-3 9,-17 9,-31 0,-25 -1,-26 -57,-19 -32,4 -170,20 -307,36 -253,29 -349,53 -180,44 49,-2 187,-9 308,-14 z M 1021,965 C 1003,956 944,937 891,921 838,905 723,869 635,841 547,813 470,790 464,790 c -14,0 -49,38 -42,46 5,5 123,34 318,79 36,8 110,26 165,39 55,13 111,25 125,25 22,0 22,-1 -9,-14 z m 409,-65 c 36,-15 124,-51 195,-80 200,-79 221,-90 217,-120 -2,-14 -5,-27 -7,-28 -5,-6 -575,282 -575,290 0,8 59,-14 170,-62 z m -361,37 C 953,848 711,662 653,616 c -70,-54 -77,-57 -99,-45 -13,7 -24,16 -24,21 0,5 78,59 173,122 94,62 214,140 266,174 52,34 99,62 105,62 6,0 4,-6 -5,-13 z m 304,-119 c 368,-338 337,-306 325,-333 -6,-14 -14,-25 -18,-25 -7,0 -416,431 -438,462 -27,38 2,15 131,-104 z m -296,60 C 1048,826 806,445 780,410 c -17,-24 -45,-28 -64,-10 -10,10 364,520 380,520 3,0 -5,-19 -19,-42 z m 283,-246 c 80,-154 139,-279 136,-288 -6,-16 -34,-30 -42,-21 -6,6 -241,553 -250,581 -15,51 23,-15 156,-272 z"
       id="path1" />
    <path
       d="m 2100,1648 c 1,-2 83,-289 183,-638 l 183,-635 120,-3 119,-2 119,457 c 66,252 122,461 126,466 5,6 60,-193 248,-905 4,-16 18,-18 123,-18 h 118 l 20,68 c 28,93 328,1151 336,1185 l 7,27 h -124 -123 l -119,-477 c -65,-263 -122,-484 -125,-490 -4,-7 -65,207 -137,475 l -131,487 -89,3 -89,3 -130,-486 c -71,-267 -132,-485 -135,-485 -3,0 -56,204 -119,453 -63,248 -118,467 -123,485 l -9,32 h -124 c -69,0 -125,-1 -125,-2 z"
       id="path2" />
    <path
       d="M 4150,1010 V 370 h 110 110 v 240 240 h 113 113 l 142,-240 143,-240 h 129 130 l -48,77 c -148,237 -262,422 -262,427 0,3 8,6 18,6 33,0 127,52 170,93 88,84 127,216 104,348 -21,119 -71,199 -164,259 -96,63 -149,70 -502,70 h -306 z m 662,405 c 53,-37 88,-102 88,-165 0,-63 -35,-128 -88,-165 l -44,-30 -199,-3 -199,-3 v 201 201 l 199,-3 199,-3 z"
       id="path3" />
    <path
       d="M 5540,1010 V 370 h 390 390 v 100 100 h -280 -280 v 540 540 h -110 -110 z"
       id="path4" />
    <path
       d="M 6730,1010 V 368 l 308,5 c 341,5 365,8 502,75 87,43 200,148 244,227 106,192 112,437 16,631 -63,128 -143,207 -278,274 -117,58 -150,63 -484,67 l -308,5 z m 622,420 c 168,-52 273,-193 285,-385 13,-200 -75,-358 -245,-438 -67,-32 -68,-32 -254,-35 l -188,-4 v 441 441 h 169 c 140,0 180,-3 233,-20 z"
       id="path5" />
  </g>
</svg>
